<?xml version="1.0" encoding="UTF-8"?>
<svg id="Layer_1" data-name="Layer 1" xmlns="http://www.w3.org/2000/svg" viewBox="0 0 1623.81 557.14">
  <defs>
    <style>
      .cls-1, .cls-2 {
        fill-rule: evenodd;
        stroke-width: 0px;
      }

      .cls-2 {
        fill: #f68f3d;
      }
    </style>
  </defs>
  <g>
    <path class="cls-2" d="m996.62,404.19c-86.54,63.87-212.01,97.83-320.06,97.83-151.43,0-287.78-55.97-390.98-149.15-8.1-7.31-.87-17.31,8.87-11.64,111.33,64.79,249,103.8,391.2,103.8,95.92,0,201.37-19.91,298.39-61.06,14.63-6.21,26.9,9.64,12.58,20.22Z"/>
    <path class="cls-2" d="m1032.64,363.08c-11.08-14.18-73.18-6.72-101.08-3.38-8.45,1.01-9.76-6.36-2.15-11.71,49.54-34.8,130.71-24.75,140.14-13.11,9.51,11.76-2.49,93.14-48.92,131.99-7.14,5.97-13.93,2.78-10.76-5.11,10.44-26.08,33.83-84.5,22.76-98.67Z"/>
  </g>
  <path class="cls-1" d="m933.53,102.18v-33.81c.02-5.15,3.91-8.58,8.57-8.57l151.54-.02c4.84,0,8.73,3.53,8.74,8.54v29c-.05,4.87-4.14,11.21-11.42,21.29l-78.49,112.07c29.14-.68,59.96,3.68,86.43,18.56,5.97,3.36,7.57,8.33,8.04,13.2v36.07c0,4.98-5.44,10.73-11.16,7.74-46.64-24.43-108.54-27.11-160.11.3-5.27,2.81-10.78-2.86-10.78-7.84v-34.3c0-5.48.1-14.87,5.63-23.24l90.95-130.47h-79.19c-4.83-.01-8.72-3.46-8.76-8.52Z"/>
  <path class="cls-1" d="m380.77,313.35h-46.1c-4.39-.29-7.9-3.59-8.25-7.79l.03-236.61c0-4.73,3.98-8.52,8.89-8.52h42.93c4.49.22,8.1,3.62,8.39,7.93v30.89h.86c11.19-29.87,32.28-43.82,60.67-43.82s46.91,13.95,59.82,43.82c11.18-29.87,36.57-43.82,63.69-43.82,19.37,0,40.45,7.97,53.37,25.89,14.63,19.92,11.62,48.79,11.62,74.19l-.04,149.32c0,4.73-3.98,8.52-8.89,8.52h-46.05c-4.63-.3-8.28-3.96-8.28-8.5v-125.44c0-9.96.85-34.86-1.3-44.32-3.44-15.93-13.77-20.41-27.11-20.41-11.19,0-22.81,7.47-27.55,19.42-4.73,11.95-4.3,31.86-4.3,45.31v125.42c0,4.73-3.99,8.52-8.89,8.52h-46.05c-4.62-.3-8.28-3.96-8.28-8.5l-.05-125.44c0-26.39,4.31-65.23-28.4-65.23s-31.84,37.84-31.84,65.23l-.02,125.42c0,4.73-3.98,8.52-8.89,8.52Z"/>
  <path class="cls-1" d="m1233.27,103.73c-34,0-36.16,46.31-36.16,75.18s-.43,90.63,35.72,90.63,37.44-49.79,37.44-80.17c0-19.92-.86-43.82-6.88-62.73-5.17-16.43-15.5-22.91-30.12-22.91h0Zm-.43-48.3c68.43,0,105.43,58.76,105.43,133.44s-40.87,129.46-105.43,129.46-103.71-58.76-103.71-131.95,37.01-130.96,103.71-130.96Z"/>
  <path class="cls-1" d="m1427,313.35h-45.93c-4.62-.3-8.27-3.96-8.27-8.5l-.07-236.71c.39-4.32,4.21-7.72,8.85-7.72h42.77c4.02.2,7.34,2.94,8.19,6.62v36.19h.86c12.92-32.37,30.98-47.8,62.83-47.8,20.65,0,40.89,7.47,53.79,27.89,12.05,18.92,12.05,50.79,12.05,73.69v148.88c-.52,4.2-4.28,7.46-8.84,7.46h-46.21c-4.27-.28-7.71-3.41-8.21-7.46v-128.47c0-25.89,3.01-63.73-28.84-63.73-11.19,0-21.52,7.47-26.67,18.92-6.45,14.44-7.32,28.88-7.32,44.81v127.41c-.09,4.73-4.07,8.52-8.98,8.52Z"/>
  <path class="cls-1" d="m71.25,244.98c0-17.95,4.43-33.3,13.27-46.06,8.85-12.75,20.94-22.38,36.3-28.88,14.06-5.99,31.36-10.28,51.91-12.89,7.03-.78,18.48-1.82,34.35-3.12v-6.64c0-16.65-1.82-27.84-5.46-33.56-11.24-16.05-36.92-14.18-51.14-3.51-6.25,4.68-10.28,11.18-12.09,19.51-1.05,5.21-3.65,8.2-7.81,8.98l-44.89-5.46c-4.43-1.04-6.64-3.38-6.64-7.02,0-.79.14-1.7.4-2.73,4.42-23.17,15.29-40.34,32.59-51.54,5.01-3.24,10.27-6.07,15.78-8.47,29.39-12.88,73.06-14.41,102.56-1.32,8.12,3.61,15.33,8.31,21.6,14.09,2.62,2.62,5.03,5.42,7.22,8.4,2.21,2.99,3.97,5.65,5.27,8.01,3.8,6.83,6.65,22.14,7.03,30.25.26,5.6.39,8.91.39,9.96v94.46c0,19.72,6.51,28.03,17.57,42.55,1.57,2.34,2.35,4.42,2.35,6.25,0,2.08-1.04,3.9-3.13,5.46-21.6,18.74-33.31,28.88-35.14,30.45-3.12,2.34-6.89,2.6-11.32.78-13.42-11.5-16.16-17.47-26.54-30.44-31.55,34.35-89.11,49.57-125.11,15.02-12.88-12.36-19.32-29.87-19.32-52.5h0Zm67.15-7.81c0,10.16,2.54,18.28,7.61,24.4,5.07,6.12,11.9,9.17,20.49,9.17.78,0,1.89-.13,3.32-.39,1.43-.26,2.4-.39,2.92-.39,10.93-2.87,19.39-9.9,25.38-21.08,2.86-4.95,5-10.34,6.44-16.21,1.43-5.85,2.21-10.6,2.35-14.25.13-3.64.19-9.63.19-17.95v-9.76c-15.09,0-26.54,1.03-34.35,3.12-22.9,6.5-34.34,20.95-34.34,43.33Z"/>
  <path class="cls-1" d="m670.46,244.98c0-17.95,4.43-33.3,13.27-46.06,8.85-12.75,20.94-22.38,36.3-28.88,14.06-5.99,31.36-10.28,51.91-12.89,7.02-.78,18.48-1.82,34.35-3.12v-6.64c0-16.65-1.82-27.84-5.46-33.56-11.24-16.05-36.92-14.18-51.14-3.51-6.25,4.68-10.28,11.18-12.1,19.51-1.05,5.21-3.65,8.2-7.81,8.98l-44.89-5.46c-4.43-1.04-6.64-3.38-6.64-7.02,0-.79.14-1.7.4-2.73,4.42-23.17,15.29-40.34,32.59-51.54,5.01-3.24,10.27-6.07,15.78-8.47,29.39-12.88,73.06-14.41,102.56-1.32,8.12,3.61,15.32,8.31,21.6,14.09,2.62,2.62,5.03,5.42,7.22,8.4,2.21,2.99,3.97,5.65,5.27,8.01,3.79,6.83,6.65,22.14,7.03,30.25.26,5.6.39,8.91.39,9.96v94.46c0,19.72,6.51,28.03,17.57,42.55,1.57,2.34,2.35,4.42,2.35,6.25,0,2.08-1.03,3.9-3.12,5.46-21.6,18.74-33.31,28.88-35.14,30.45-3.12,2.34-6.89,2.6-11.32.78-13.43-11.5-16.16-17.47-26.54-30.44-31.55,34.35-89.11,49.57-125.11,15.02-12.88-12.36-19.32-29.87-19.32-52.5h0Zm67.15-7.81c0,10.16,2.54,18.28,7.6,24.4,5.07,6.12,11.91,9.17,20.5,9.17.78,0,1.88-.13,3.32-.39,1.43-.26,2.4-.39,2.92-.39,10.93-2.87,19.39-9.9,25.38-21.08,2.86-4.95,5-10.34,6.44-16.21,1.43-5.85,2.21-10.6,2.35-14.25.13-3.64.19-9.63.19-17.95v-9.76c-15.09,0-26.54,1.03-34.35,3.12-22.9,6.5-34.34,20.95-34.34,43.33Z"/>
</svg>